<svg xmlns="http://www.w3.org/2000/svg" width="32" height="32" viewBox="0 0 32 32"><path style="line-height:normal;font-variant-ligatures:normal;font-variant-position:normal;font-variant-caps:normal;font-variant-numeric:normal;font-variant-alternates:normal;font-variant-east-asian:normal;font-feature-settings:normal;font-variation-settings:normal;text-indent:0;text-align:start;text-decoration-line:none;text-decoration-style:solid;text-decoration-color:#000;text-transform:none;text-orientation:mixed;white-space:normal;shape-padding:0;shape-margin:0;inline-size:0;isolation:auto;mix-blend-mode:normal;solid-color:#000;solid-opacity:1" d="m 8.50696,223.49532 c 3.99851,3.9985 9.2486,6.47747 12.87293,6.4924 1.6262,0.0992 3.02096,-0.51309 4.19982,-1.3134 1.18712,-0.8059 2.22086,-1.80049 3.26486,-2.62679 1.38944,-1.0997 1.56757,-3.21918 0.29554,-4.49123 l -3.24552,-3.24551 c -1.68729,-1.68734 -4.5526,-1.38847 -5.85433,0.61181 l -0.69329,1.06618 c -1.8174,-0.63366 -3.60669,-1.62023 -4.66801,-2.66822 -1.43606,-1.43182 -2.00743,-2.82889 -2.67376,-4.65972 l 1.07447,-0.69881 c 2.00029,-1.30175 2.29915,-4.16706 0.61181,-5.85434 l -3.2455,-3.24552 c -1.27206,-1.27204 -3.39152,-1.09389 -4.49123,0.29554 -0.8263,1.044 -1.8209,2.07773 -2.62679,3.26485 -0.80032,1.17887 -1.41259,2.57362 -1.3134,4.19983 0.0149,3.62432 2.4939,8.87441 6.4924,12.87293 z m 1.41421,-1.41422 c -3.57644,-3.57644 -5.6725,-7.60144 -5.91513,-11.5609 -0.0723,-1.07872 0.30582,-1.98498 0.97781,-2.97483 0.67196,-0.98984 1.63472,-2.00119 2.53977,-3.14469 0.40421,-0.51069 1.06668,-0.56575 1.50813,-0.12429 l 3.2455,3.24551 c 0.82,0.81997 0.68305,2.13116 -0.28864,2.76352 l -1.76085,1.1449 c -0.38843,0.25266 -0.55248,0.73901 -0.39638,1.17529 0.81177,2.2666 1.50219,4.20413 3.23407,5.92411 1.73158,1.72028 4.02721,2.98038 6.39198,3.6605 0.4225,0.12143 0.87474,-0.0472 1.11452,-0.4157 l 1.14491,-1.76088 c 0.63234,-0.97167 1.94354,-1.10862 2.76351,-0.28862 l 3.24551,3.24551 c 0.44147,0.44146 0.38639,1.10393 -0.12429,1.50812 -1.14349,0.90505 -2.15485,1.86781 -3.14469,2.53978 -0.98985,0.67198 -1.8961,1.05012 -2.97483,0.9778 -4.28292,-0.46427 -7.91829,-2.37966 -11.5609,-5.91513 z" color="#000" enable-background="accumulate" font-family="sans-serif" font-weight="400" overflow="visible" transform="translate(-.001 -200.001)"/></svg>