<svg xmlns="http://www.w3.org/2000/svg" data-name="Layer 1" viewBox="0 0 64 64"><path d="M41.62 63a2.982 2.982 0 0 0 1.021-.18A33.666 33.666 0 0 0 62.819 42.641a3.007 3.007 0 0 0-.7-3.147l-4.757-4.758a2 2 0 0 0-2.827 0l-4.371 4.371a2.007 2.007 0 0 0-.249 2.523l1.918 2.878-7.326 7.326-2.877-1.918a2.009 2.009 0 0 0-2.525.25l-4.37 4.37a2 2 0 0 0 0 2.828l4.756 4.755A3.009 3.009 0 0 0 41.62 63zm-1.1-11.418l3.561 2.373a1 1 0 0 0 1.262-.125l8.485-8.485a1 1 0 0 0 .125-1.262l-2.373-3.561 4.37-4.37 4.757 4.758a1 1 0 0 1 .232 1.048A31.666 31.666 0 0 1 41.957 60.94a1 1 0 0 1-1.049-.233l-4.757-4.756zM33.958 23.287l3-10A1 1 0 0 0 36 12H18.281L16.97 6.758A1 1 0 0 0 16 6H11V8h4.219L19.03 23.242A1 1 0 0 0 20 24H33A1 1 0 0 0 33.958 23.287zM20.781 22l-2-8H34.656l-2.4 8z" fill="#ca2e55" class="color000000 svgShape"></path><circle cx="30" cy="27" r="1.5" fill="#ca2e55" class="color000000 svgShape"></circle><circle cx="23" cy="27" r="1.5" fill="#ca2e55" class="color000000 svgShape"></circle><rect width="5" height="2" x="9" y="14" fill="#ca2e55" class="color000000 svgShape"></rect><rect width="6" height="2" x="6" y="18" fill="#ca2e55" class="color000000 svgShape"></rect><rect width="6" height="2" x="10" y="22" fill="#ca2e55" class="color000000 svgShape"></rect><path d="M34.986 45.836L33.181 35H39a3 3 0 0 0 3-3V4a3 3 0 0 0-3-3H4A3 3 0 0 0 1 4V32a3 3 0 0 0 3 3H22.561l10.7 11.676A1 1 0 0 0 34 47a1 1 0 0 0 .986-1.164zM23.737 33.324A1 1 0 0 0 23 33H4a1 1 0 0 1-1-1V4A1 1 0 0 1 4 3H39a1 1 0 0 1 1 1V32a1 1 0 0 1-1 1H32a1 1 0 0 0-.986 1.164l1.445 8.676zM16.36 49.8l-1.327 1.5a25.724 25.724 0 0 0 2.473 1.935l1.134-1.646A24.179 24.179 0 0 1 16.36 49.8zM21.119 53.084l-.927 1.771a26.167 26.167 0 0 0 2.863 1.288l.708-1.872A24.2 24.2 0 0 1 21.119 53.084zM48.107 13.8l1.322-1.5a26.155 26.155 0 0 0-2.474-1.93l-1.133 1.649A24.061 24.061 0 0 1 48.107 13.8zM29.381 55.645a24.294 24.294 0 0 1-2.85-.516l-.474 1.943a26.222 26.222 0 0 0 3.087.559zM14.307 47.753a23.945 23.945 0 0 1-1.79-2.276l-1.645 1.138a26.1 26.1 0 0 0 1.941 2.468zM53.6 16.973a25.969 25.969 0 0 0-1.944-2.463l-1.492 1.332a24.317 24.317 0 0 1 1.8 2.273zM7.949 41.077a26.067 26.067 0 0 0 1.294 2.86L11.012 43a23.887 23.887 0 0 1-1.194-2.639zM58.051 28.586a25.68 25.68 0 0 0-.574-3.086l-1.94.484a23.965 23.965 0 0 1 .53 2.848zM56.534 22.506a26.146 26.146 0 0 0-1.3-2.858l-1.767.938a24.153 24.153 0 0 1 1.2 2.637z" fill="#ca2e55" class="color000000 svgShape"></path></svg>