<svg xmlns="http://www.w3.org/2000/svg" data-name="Layer 1" viewBox="0 0 128 128"><path d="M46.12647 83.55275a1.998 1.998 0 0 0-2.77881.52551l-16 23.47046a2.00017 2.00017 0 1 0 3.30469 2.25427l16-23.47046A2.00043 2.00043 0 0 0 46.12647 83.55275zM30 80.00435a6.00095 6.00095 0 1 0 6 6.001A6.007 6.007 0 0 0 30 80.00435zm0 8.00128a2.00031 2.00031 0 1 1 2-2.00031A2.00243 2.00243 0 0 1 30 88.00563zM42 104.00813a6.00095 6.00095 0 1 0 6 6.00092A6.007 6.007 0 0 0 42 104.00813zm0 8.00122a2.00031 2.00031 0 1 1 2-2.00031A2.00243 2.00243 0 0 1 42 112.00935z" fill="#ca2e55" class="color000000 svgShape"></path><path d="M56.27967,122.301a2.213,2.213,0,0,1-2.57251,1.65533l-42.16479-10.0462a2.106,2.106,0,0,1-1.47992-2.54645L27.40558,40.9568a13.16245,13.16245,0,0,1,4.84174-6.72119l13.31494-8.21118,2.28326-6.108L30.148,30.83028a17.11008,17.11008,0,0,0-6.6297,9.184L6.17859,110.40669a6.07987,6.07987,0,0,0,4.43793,7.39545l42.1637,10.046a6.33278,6.33278,0,0,0,7.381-4.58081L63.025,111.91957l-2.611-6.0011S56.28272,122.2889,56.27967,122.301Z" fill="#ca2e55" class="color000000 svgShape"></path><path d="M121.49366,99.028l-28.144-65.68475a15.969,15.969,0,0,0-7.99835-7.63507L71.77009,20.7325a33.5826,33.5826,0,0,1-.697,4.00531L83.97346,29.464a12.19223,12.19223,0,0,1,5.69965,5.45508l28.14355,65.6839a2.302,2.302,0,0,1-1.0481,2.94458S78.179,121.78871,78.08234,121.83443a1.82645,1.82645,0,0,1-2.44965-.9892l-28.86908-66.354a13.33813,13.33813,0,0,1-.21552-8.25647l9.28577-24.84082a2.10324,2.10324,0,0,1,2.61353-1.28168l1.23724.45325a19.94332,19.94332,0,0,0,.29248-4.15344l-.15387-.0564a5.89131,5.89131,0,0,0-2.03094-.36133A6.12337,6.12337,0,0,0,52.08753,19.992L42.8014,44.8337a17.28422,17.28422,0,0,0,.29492,11.25488s28.85651,66.32507,28.86859,66.35291a5.87716,5.87716,0,0,0,7.82739,3.00958l38.68549-18.28656A6.30033,6.30033,0,0,0,121.49366,99.028Z" fill="#ca2e55" class="color000000 svgShape"></path><path d="M48.54444 14.27437A2.00028 2.00028 0 0 0 51.186 11.27a3.21736 3.21736 0 0 1-1.1709-2.82269 5.2384 5.2384 0 0 1 2.55322-3.81311c3.623-2.17322 7.65381 1.81769 9.27734 4.23114 2.96582 4.40887 2.40527 11.14917 1.02441 15.58057-.16266.52173-.34943 1.04425-.54425 1.56647-.10773-.0058-.21429-.01642-.32343-.01642a6.02319 6.02319 0 1 0 4.0202 1.561c.24194-.63977.46631-1.28021.66583-1.92047 1.72363-5.53015 2.228-13.42694-1.52393-19.004C61.88233 1.75288 55.898-2.03093 50.51124 1.20393a9.22463 9.22463 0 0 0-4.48 6.881A7.21136 7.21136 0 0 0 48.54444 14.27437zm13.458 19.72278A2.00031 2.00031 0 1 1 64 31.99782 2.00306 2.00306 0 0 1 62.00245 33.99715zM69.53016 54.11348a1.82178 1.82178 0 0 1 .04016 1.32764 1.65381 1.65381 0 0 1-.92365 1.00641 1.69819 1.69819 0 0 1-1.371.03241 1.77057 1.77057 0 0 1-1.00305-.903l-2.30707-4.8526A1.97436 1.97436 0 0 0 62.782 49.65718a2.1179 2.1179 0 0 0-2.65552 1.203 1.94177 1.94177 0 0 0 .09485 1.58508l2.30707 4.85254a5.88064 5.88064 0 0 0 1.43036 1.83545 6.13364 6.13364 0 0 0 1.94061 1.13409 5.9872 5.9872 0 0 0 2.22357.34155 5.78646 5.78646 0 0 0 2.24731-.53516 5.57331 5.57331 0 0 0 1.886-1.39758 6.10333 6.10333 0 0 0 1.16229-1.96307 6.01973 6.01973 0 0 0 .35358-2.20642 5.25967 5.25967 0 0 0-.51129-2.1405l-.88141-1.85358a1.633 1.633 0 0 1-.067-1.31555 1.7385 1.7385 0 0 1 .869-.979A2.01007 2.01007 0 0 1 74.61439 48.14a1.63321 1.63321 0 0 1 1.01025.88177l2.30762 4.85352a1.97949 1.97949 0 0 0 1.14838 1.06622 2.02715 2.02715 0 0 0 1.57825-.09326 2.26081 2.26081 0 0 0 1.07263-1.19183 1.82879 1.82879 0 0 0-.05566-1.502L79.36878 47.3008A5.21988 5.21988 0 0 0 77.939 45.46742a6.50241 6.50241 0 0 0-2.003-1.12292 6.24656 6.24656 0 0 0-2.25812-.34259 5.61651 5.61651 0 0 0-2.1911.50977 5.50134 5.50134 0 0 0-1.90045 1.40472 5.84657 5.84657 0 0 0-1.12671 1.92969 6.00508 6.00508 0 0 0-.32629 2.19214 5.82737 5.82737 0 0 0 .50256 2.19421zM87.41779 64.23207a7.21649 7.21649 0 0 0-1.77155-2.37457 7.3325 7.3325 0 0 0-2.43335-1.424 7.52779 7.52779 0 0 0-2.79675-.40845 7.82724 7.82724 0 0 0-2.85962.66589L68.3498 64.92128A1.72505 1.72505 0 0 0 67.388 66.027a1.977 1.977 0 0 0 .0979 1.48474A1.94482 1.94482 0 0 0 68.623 68.51711a1.92 1.92 0 0 0 1.52051-.03442l3.16168-1.45337 2.89056 6.08093-3.24518 1.49188a1.726 1.726 0 0 0-.9809 1.09753 1.994 1.994 0 0 0 .117 1.49084 1.96662 1.96662 0 0 0 1.14429.98615 1.93519 1.93519 0 0 0 1.48755-.069l9.34692-4.29517a6.66757 6.66757 0 0 0 2.31946-1.731 7.30514 7.30514 0 0 0 1.37927-2.3949 7.02663 7.02663 0 0 0 .36078-2.72321A7.34535 7.34535 0 0 0 87.41779 64.23207zm-3.49 4.24554a3.14043 3.14043 0 0 1-.67371 1.10571 3.44682 3.44682 0 0 1-1.09583.78748l-2.35754 1.08337-2.89056-6.08087L79.40589 64.226a3.16391 3.16391 0 0 1 1.28241-.28986 3.24907 3.24907 0 0 1 1.25354.22095 3.632 3.632 0 0 1 1.07721.66882 3.175 3.175 0 0 1 .7804 1.03583 3.2342 3.2342 0 0 1 .32678 1.32764A3.60919 3.60919 0 0 1 83.9278 68.47762zM91.90619 75.0602A1.98312 1.98312 0 0 0 90.33 75.121L76.38025 81.53023a2.25964 2.25964 0 0 0-1.07312 1.19086 1.9036 1.9036 0 0 0 .08142 1.5567l3.99255 8.39777a1.92722 1.92722 0 0 0 1.1438 1.01953A2.03806 2.03806 0 0 0 82.1222 93.609a1.95427 1.95427 0 0 0 1.06488-1.13715 1.88143 1.88143 0 0 0-.06183-1.51617l-3.12457-6.57037 12.0921-5.556a1.911 1.911 0 0 0 1.05151-1.16553 1.94551 1.94551 0 0 0-.06189-1.51617A2.052 2.052 0 0 0 91.90619 75.0602zM100.05781 100.41658a2.0276 2.0276 0 0 0 2.72668.9729 2.01647 2.01647 0 0 0 1.0788-1.14319 1.89317 1.89317 0 0 0-.06189-1.55066l-3.707-7.79773a1.88255 1.88255 0 0 0-1.2041-1.04083 2.11935 2.11935 0 0 0-1.55042.08008L83.3902 96.34737a2.041 2.041 0 0 0-1.017 2.69385l3.707 7.79779a1.96857 1.96857 0 0 0 1.15662 1.04694 2.04771 2.04771 0 0 0 1.59735-.08612 1.97439 1.97439 0 0 0 1.05145-1.131 1.89476 1.89476 0 0 0-.06134-1.55066l-2.85187-5.99884 3.32764-1.52936 1.9834 4.17151a2.06853 2.06853 0 0 0 3.79877-.18237 1.91053 1.91053 0 0 0-.05469-1.53748l-1.98334-4.17151 3.16162-1.45233z" fill="#ca2e55" class="color000000 svgShape"></path></svg>